<svg width="307" height="250" viewBox="0 0 307 250" fill="none" xmlns="http://www.w3.org/2000/svg">
<path d="M306.5 125C306.5 194.036 250.536 250 181.5 250C112.464 250 56.5 194.036 56.5 125C56.5 55.9644 112.464 -8.76351e-06 181.5 -8.76351e-06C250.536 -8.76351e-06 306.5 55.9644 306.5 125Z" fill="url(#paint0_linear_380_638)"/>
<path d="M100 143.827C100 171.441 77.6142 193.827 50 193.827C22.3858 193.827 0 171.441 0 143.827C0 116.213 22.3858 93.8271 50 93.8271C77.6142 93.8271 100 116.213 100 143.827Z" fill="url(#paint1_linear_380_638)"/>
<defs>
<linearGradient id="paint0_linear_380_638" x1="225.5" y1="21.8272" x2="19.5" y2="215.327" gradientUnits="userSpaceOnUse">
<stop stop-color="#FEE0FF"/>
<stop offset="0.794219" stop-color="#FF8C8C"/>
</linearGradient>
<linearGradient id="paint1_linear_380_638" x1="60" y1="89.3271" x2="-23" y2="172.827" gradientUnits="userSpaceOnUse">
<stop stop-color="#DCFFF2"/>
<stop offset="0.738633" stop-color="#DAACFF"/>
</linearGradient>
</defs>
</svg>
