<svg width="10" height="10" viewBox="0 0 10 10" fill="none" xmlns="http://www.w3.org/2000/svg">
	<path d="M0.109868 0.109671C0.046358 0.173166 0.0077434 0.257345 0.00104508 0.3469C-0.00565324 0.436456 0.0200095 0.525442 0.0733672 0.597678L0.109868 0.639678L2.12689 2.6572C1.1434 3.34653 0.441315 4.36725 0.149368 5.53224C0.126857 5.62815 0.142987 5.72906 0.194271 5.81316C0.245555 5.89727 0.327875 5.95782 0.42344 5.98173C0.519005 6.00564 0.620139 5.99098 0.704986 5.94093C0.789833 5.89088 0.851578 5.80945 0.876878 5.71424C1.13633 4.68023 1.77534 3.78169 2.6669 3.19721L3.57191 4.10222C3.21041 4.47998 3.0112 4.98427 3.01697 5.5071C3.02273 6.02993 3.23301 6.52972 3.60276 6.8994C3.97252 7.26909 4.47234 7.47928 4.99517 7.48495C5.518 7.49063 6.02226 7.29134 6.39995 6.92976L9.35949 9.8898C9.4264 9.9569 9.51624 9.99617 9.61093 9.99973C9.70562 10.0033 9.79815 9.97088 9.86992 9.90899C9.94168 9.84711 9.98735 9.76035 9.99776 9.66617C10.0082 9.57198 9.98252 9.47735 9.92599 9.40129L9.88949 9.35929L6.83296 6.30225L6.83345 6.30125L6.23345 5.70224L4.79843 4.26723L3.35941 2.82871L3.35991 2.82771L2.7934 2.2627L0.639875 0.109671C0.569561 0.0394453 0.474248 0 0.374871 0C0.275494 0 0.180181 0.0394453 0.109868 0.109671ZM4.10192 4.63223L5.86944 6.40025C5.63369 6.62795 5.31793 6.75395 4.99018 6.7511C4.66243 6.74825 4.34891 6.61679 4.11715 6.38503C3.88538 6.15326 3.75392 5.83974 3.75107 5.51199C3.74822 5.18424 3.87422 4.86799 4.10192 4.63223ZM4.99993 1.74969C4.49992 1.74969 4.01492 1.82369 3.55541 1.9622L4.17392 2.5802C5.24371 2.36838 6.35399 2.57575 7.2752 3.15943C8.19642 3.74311 8.85812 4.65847 9.12348 5.71624C9.14939 5.81071 9.21123 5.89129 9.29578 5.94075C9.38033 5.99022 9.48087 6.00463 9.57591 5.98092C9.67096 5.95721 9.75295 5.89725 9.80435 5.81387C9.85576 5.73049 9.8725 5.63031 9.85099 5.53474C9.57985 4.45346 8.95525 3.49375 8.07637 2.80799C7.19748 2.12224 6.11469 1.74976 4.99993 1.74969ZM5.09743 3.50472L6.99796 5.40474C6.97337 4.90868 6.76523 4.43949 6.41399 4.08834C6.06275 3.73719 5.5935 3.52917 5.09743 3.50472Z" fill="black" />
</svg>
